<?xml version="1.0" encoding="UTF-8" standalone="no"?>
<svg
   width="67.7428mm"
   height="67.7428mm"
   viewBox="0 0 256 256"
   version="1.1"
   id="svg1"
   sodipodi:docname="Duck.svg"
   inkscape:version="1.3.1 (91b66b0783, 2023-11-16)"
   inkscape:export-filename="Duck.png"
   inkscape:export-xdpi="96"
   inkscape:export-ydpi="96"
   xmlns:inkscape="http://www.inkscape.org/namespaces/inkscape"
   xmlns:sodipodi="http://sodipodi.sourceforge.net/DTD/sodipodi-0.dtd"
   xmlns:xlink="http://www.w3.org/1999/xlink"
   xmlns="http://www.w3.org/2000/svg"
   xmlns:svg="http://www.w3.org/2000/svg">
  <defs
     id="defs1">
    <linearGradient
       id="linearGradient2"
       inkscape:collect="always">
      <stop
         style="stop-color:#f08c72;stop-opacity:1;"
         offset="0"
         id="stop2" />
      <stop
         style="stop-color:#f4b6a5;stop-opacity:1;"
         offset="1"
         id="stop3" />
    </linearGradient>
    <linearGradient
       inkscape:collect="always"
       xlink:href="#linearGradient2"
       id="linearGradient3"
       x1="8.5735703"
       y1="27.356394"
       x2="227.50104"
       y2="227.51677"
       gradientUnits="userSpaceOnUse" />
  </defs>
  <sodipodi:namedview
     id="namedview1"
     pagecolor="#505050"
     bordercolor="#eeeeee"
     borderopacity="1"
     inkscape:showpageshadow="0"
     inkscape:pageopacity="0"
     inkscape:pagecheckerboard="0"
     inkscape:deskcolor="#505050"
     inkscape:document-units="mm"
     inkscape:zoom="3.2065832"
     inkscape:cx="127.86196"
     inkscape:cy="128.01789"
     inkscape:window-width="1920"
     inkscape:window-height="1017"
     inkscape:window-x="-8"
     inkscape:window-y="-8"
     inkscape:window-maximized="1"
     inkscape:current-layer="svg1" />
  <path
     id="Selection"
     fill="none"
     stroke="black"
     stroke-width="1"
     d="M 85.00,28.44            C 113.33,24.81 141.85,38.07 142.00,70.00              142.05,80.40 142.00,87.33 137.19,97.00              135.71,99.97 130.56,106.68 132.01,109.78              134.49,115.07 148.00,115.05 153.00,115.00              168.68,114.81 185.16,108.67 199.00,101.75              204.08,99.21 213.95,93.37 219.61,97.02              222.52,98.90 223.89,104.76 224.55,108.00              226.77,118.82 227.02,127.10 227.00,138.00              226.99,145.44 225.30,157.90 223.14,165.00              221.15,171.55 217.97,179.24 214.31,185.00              211.33,189.68 206.79,196.04 202.91,199.91              180.49,222.33 145.27,227.35 115.00,227.00              85.44,226.65 50.66,213.80 36.76,186.00              33.34,179.17 31.09,172.70 31.00,165.00              30.84,150.93 32.72,142.17 41.92,131.00              47.46,124.27 48.88,124.06 53.91,118.91              55.62,117.15 57.92,114.65 57.77,112.00              57.33,104.52 49.33,104.25 44.00,103.41              34.32,101.89 15.21,98.47 10.57,88.99              8.62,85.00 8.01,76.77 12.28,74.02              14.14,72.81 20.52,72.24 23.00,71.87              28.37,71.06 37.69,68.77 41.87,65.36              41.87,65.36 53.76,46.00 53.76,46.00              61.47,35.68 72.70,30.71 85.00,28.44 Z"
     style="fill:url(#linearGradient3);fill-opacity:1;stroke:none" />
</svg>
